<?xml version="1.0"?>
<svg xmlns="http://www.w3.org/2000/svg" viewBox="0 0 50 50">
    <path d="M42.886,35.969c-0.658-0.533-1.472-0.737-2.25-0.641C42.125,32.898,43,30.053,43,27c0-3.542-1.171-6.807-3.126-9.461 c0.043,0.002,0.085,0.013,0.128,0.013c0.746,0,1.493-0.276,2.074-0.833c1.197-1.146,1.238-3.045,0.092-4.241 C40.346,10.575,38.227,9.084,35.923,8H36c1.657,0,3-1.343,3-3s-1.343-3-3-3H15c-0.796,0-1.559,0.316-2.122,0.879 C12.315,3.442,12,4.206,12,5.001l0.008,16.977c0,1.428,1.008,2.658,2.409,2.94c0.637,0.128,1.271,0.034,1.83-0.221 C16.088,25.441,16,26.21,16,27v2.176c-0.675-0.237-1.433-0.246-2.146,0.052c-0.638,0.266-1.125,0.733-1.441,1.291 c-0.232-0.981-0.373-1.999-0.405-3.047c-0.051-1.656-1.398-2.966-3.091-2.906c-1.656,0.051-2.957,1.435-2.906,3.091 C6.361,39.063,15.581,48,27,48c6.367,0,12.32-2.847,16.333-7.812C44.375,38.9,44.174,37.011,42.886,35.969z M40.724,13.86 c0.382,0.398,0.368,1.032-0.031,1.414c-0.193,0.186-0.442,0.278-0.691,0.278c-0.263,0-0.526-0.103-0.722-0.309 C36.042,11.862,31.681,10,27,10c-1.948,0-3.857,0.327-5.677,0.971c-0.519,0.183-1.092-0.088-1.276-0.609 c-0.184-0.521,0.088-1.092,0.609-1.276C22.69,8.365,24.824,8,27,8C32.231,8,37.105,10.081,40.724,13.86z M14.624,31.073 c0.511-0.214,1.096,0.028,1.308,0.538c0.514,1.233,1.221,2.341,2.068,3.307V27c0-4.962,4.038-9,9-9s9,4.038,9,9s-4.038,9-9,9 c-1.119,0-2.222-0.21-3.279-0.625c-0.515-0.202-0.768-0.782-0.566-1.296c0.202-0.514,0.782-0.767,1.296-0.566 C25.275,33.836,26.132,34,27,34c3.86,0,7-3.14,7-7s-3.14-7-7-7s-7,3.14-7,7v9.737C21.996,38.176,24.424,39,27,39 c6.617,0,12-5.383,12-12s-5.383-12-12-12c-4.849,0-9.194,2.891-11.07,7.364c-0.185,0.439-0.65,0.686-1.12,0.594 c-0.467-0.094-0.803-0.504-0.803-0.98L14,5c0-0.265,0.105-0.52,0.293-0.708C14.48,4.105,14.735,4,15,4h21c0.552,0,1,0.448,1,1 s-0.448,1-1,1H16l0.006,12.325C18.618,15.009,22.634,13,27,13c7.72,0,14,6.28,14,14s-6.28,14-14,14 c-5.66,0-10.729-3.383-12.914-8.619C13.874,31.872,14.115,31.286,14.624,31.073z M24.293,25.707c-0.391-0.391-0.391-1.023,0-1.414 s1.023-0.391,1.414,0L27,25.586l1.293-1.293c0.391-0.391,1.023-0.391,1.414,0s0.391,1.023,0,1.414L28.414,27l1.293,1.293 c0.391,0.391,0.391,1.023,0,1.414C29.512,29.902,29.256,30,29,30s-0.512-0.098-0.707-0.293L27,28.414l-1.293,1.293 C25.512,29.902,25.256,30,25,30s-0.512-0.098-0.707-0.293c-0.391-0.391-0.391-1.023,0-1.414L25.586,27L24.293,25.707z M41.778,38.931C38.146,43.423,32.76,46,27,46C16.668,46,8.326,37.915,8.009,27.594c-0.017-0.552,0.417-1.013,0.969-1.03 c0.557-0.035,1.013,0.417,1.03,0.969C10.292,36.767,17.755,44,27,44c5.153,0,9.972-2.306,13.222-6.326 c0.347-0.43,0.978-0.496,1.406-0.149C42.058,37.872,42.125,38.501,41.778,38.931z"/>
</svg>
